<?xml version="1.0" encoding="UTF-8" standalone="no"?>
<svg
   xmlns:dc="http://purl.org/dc/elements/1.1/"
   xmlns:cc="http://creativecommons.org/ns#"
   xmlns:rdf="http://www.w3.org/1999/02/22-rdf-syntax-ns#"
   xmlns:svg="http://www.w3.org/2000/svg"
   xmlns="http://www.w3.org/2000/svg"
   id="svg8"
   version="1.1"
   viewBox="0 0 280 390"
   height="390mm"
   width="280mm">
  <defs
     id="defs2">
    <clipPath
       clipPathUnits="userSpaceOnUse"
       id="clipPath55">
      <path
         d="M 0,800 H 800 V 0 H 0 Z"
         id="path53" />
    </clipPath>
    <clipPath
       clipPathUnits="userSpaceOnUse"
       id="clipPath63">
      <path
         d="M 293.917,34.9951 H 504.282 V 14.0889 H 293.917 Z"
         id="path61" />
    </clipPath>
    <clipPath
       clipPathUnits="userSpaceOnUse"
       id="clipPath179">
      <path
         d="M 0,800 H 800 V 0 H 0 Z"
         id="path177" />
    </clipPath>
    <linearGradient
       id="foss-ag_green"
       gradientTransform="matrix(2.4485947e-4,0,0,2.4526901e-4,99.995697,145.46271)"
       x1="88.822021"
       y1="226.88707"
       x2="256.22311"
       y2="226.88707"
       gradientUnits="userSpaceOnUse">
      <stop
         id="stop3200"
         style="stop-color:#14b967" />
    </linearGradient>
  </defs>
  <metadata
     id="metadata5">
    <rdf:RDF>
      <cc:Work
         rdf:about="">
        <dc:format>image/svg+xml</dc:format>
        <dc:type
           rdf:resource="http://purl.org/dc/dcmitype/StillImage" />
        <dc:title></dc:title>
      </cc:Work>
    </rdf:RDF>
  </metadata>
  <g
     transform="translate(0,93)"
     style="display:inline"
     id="layer2">
    <path
       id="rect1807"
       d="M 3.691396e-4,-93 H 280.00037 V 297 H 3.691396e-4 Z"
       style="fill:#000000;fill-opacity:1;stroke:none;stroke-width:0.26458332;stroke-miterlimit:4;stroke-dasharray:none;stroke-opacity:1" />
    <g
       id="text4767"
       style="font-style:normal;font-weight:normal;font-size:35.27777481px;line-height:125%;font-family:sans-serif;letter-spacing:0px;word-spacing:0px;display:inline;fill:#000000;fill-opacity:1;stroke:none;stroke-width:0.26458332px;stroke-linecap:butt;stroke-linejoin:miter;stroke-opacity:1" />
    <g
       id="text6258"
       style="font-style:normal;font-weight:normal;font-size:35.27777481px;line-height:125%;font-family:sans-serif;letter-spacing:0px;word-spacing:0px;display:inline;fill:#000000;fill-opacity:1;stroke:none;stroke-width:0.26458332px;stroke-linecap:butt;stroke-linejoin:miter;stroke-opacity:1" />
    <g
       id="text6574"
       style="font-style:normal;font-weight:normal;font-size:35.27777481px;line-height:125%;font-family:sans-serif;letter-spacing:0px;word-spacing:0px;display:inline;fill:#000000;fill-opacity:1;stroke:none;stroke-width:0.26458332px;stroke-linecap:butt;stroke-linejoin:miter;stroke-opacity:1" />
    <g
       transform="matrix(1.0689206,0,0,1.0689206,2109.9441,1200.057)"
       style="font-style:normal;font-weight:normal;font-size:51.81710434px;line-height:125%;font-family:sans-serif;letter-spacing:0px;word-spacing:0px;display:inline;fill:#000000;fill-opacity:1;stroke:none;stroke-width:0.24752386px;stroke-linecap:butt;stroke-linejoin:miter;stroke-opacity:1"
       id="text1862" />
    <g
       id="text978"
       style="font-style:normal;font-variant:normal;font-weight:normal;font-stretch:normal;font-size:10.58333302px;line-height:1.25;font-family:'Clear Sans';-inkscape-font-specification:'Clear Sans';letter-spacing:0px;word-spacing:0px;display:inline;fill:#ffffff;fill-opacity:1;stroke:none;stroke-width:0.26458332" />
    <g
       id="g1827"
       transform="matrix(3.7388998,0,0,3.7388998,14257.498,6962.444)"
       style="display:inline;stroke-width:0.26745838">
      <g
         transform="matrix(-0.05433372,-0.09410877,-0.09410877,0.05433372,-5025.8823,-9318.9628)"
         id="g1813"
         style="font-style:normal;font-variant:normal;font-weight:normal;font-stretch:normal;font-size:656.00671387px;line-height:1.25;font-family:'PF Encore Sans Pro';-inkscape-font-specification:'PF Encore Sans Pro';font-variant-ligatures:normal;font-variant-caps:normal;font-variant-numeric:normal;font-feature-settings:normal;text-align:start;letter-spacing:0px;word-spacing:0px;writing-mode:lr-tb;text-anchor:start;display:inline;opacity:1;fill:#808080;fill-opacity:1;stroke:#808080;stroke-width:13.77500629;stroke-opacity:1"
         aria-label="*">
        <path
           id="path1809"
           transform="matrix(-1.0071578,-0.5814829,-0.5814829,1.0071578,-69533.156,24379.04)"
           style="color:#000000;font-style:normal;font-variant:normal;font-weight:normal;font-stretch:normal;font-size:medium;line-height:1.25;font-family:Metropolis;-inkscape-font-specification:Metropolis;font-variant-ligatures:normal;font-variant-position:normal;font-variant-caps:normal;font-variant-numeric:normal;font-variant-alternates:normal;font-feature-settings:normal;text-indent:0;text-align:start;text-decoration:none;text-decoration-line:none;text-decoration-style:solid;text-decoration-color:#000000;letter-spacing:0px;word-spacing:0px;text-transform:none;writing-mode:lr-tb;direction:ltr;text-orientation:mixed;dominant-baseline:auto;baseline-shift:baseline;text-anchor:start;white-space:normal;shape-padding:0;clip-rule:nonzero;display:inline;overflow:visible;visibility:visible;opacity:1;isolation:auto;mix-blend-mode:normal;color-interpolation:sRGB;color-interpolation-filters:linearRGB;solid-color:#000000;solid-opacity:1;vector-effect:none;fill:#808080;fill-opacity:1;fill-rule:nonzero;stroke:none;stroke-width:11.84472466;stroke-linecap:butt;stroke-linejoin:miter;stroke-miterlimit:4;stroke-dasharray:none;stroke-dashoffset:0;stroke-opacity:1;color-rendering:auto;image-rendering:auto;shape-rendering:auto;text-rendering:auto;enable-background:accumulate"
           d="m -3153.7754,-1878.5039 -11.0723,19.1758 -11.0703,19.1758 9.1582,5.289 c 11.3677,6.5636 23.7215,11.4575 36.2227,16.3613 -12.5013,4.9039 -24.8524,9.7976 -36.2207,16.3614 l -9.1582,5.289 11.0703,19.1758 11.0723,19.1758 9.1582,-5.2871 c 11.5242,-6.6532 22.0686,-15.0384 32.7129,-23.5313 h 35.5351 c 10.6443,8.4913 21.1881,16.8784 32.7129,23.5312 l 9.1582,5.2871 11.0723,-19.1757 11.0703,-19.1758 -9.1582,-5.2871 c -11.367,-6.5627 -23.7178,-11.4572 -36.2168,-16.3614 12.4986,-4.904 24.8523,-9.7959 36.2187,-16.3593 l 9.1582,-5.2891 -11.0703,-19.1758 -11.0722,-19.1758 -9.1582,5.2872 c -11.5245,6.6536 -22.0703,15.0396 -32.7149,23.5312 h -35.5351 c -10.6444,-8.493 -21.1901,-16.8757 -32.7149,-23.5293 z m 37.4977,-21.6506 v 10.5762 c 0,13.3073 1.9898,26.6314 4.0214,40.0957 v 61.957 c -2.0329,13.4647 -4.0216,26.7881 -4.0214,40.0957 v 10.5762 h 22.1425 22.1426 v -10.5762 c 3e-4,-13.3069 -1.9886,-26.6311 -4.0215,-40.0957 v -61.957 c 2.0315,-13.4639 4.0224,-26.7885 4.0215,-40.0957 v -10.5762 h -22.1426 z" />
        <path
           d="m -3153.7754,-1878.5039 -11.0723,19.1758 -11.0703,19.1758 9.1582,5.289 c 11.3677,6.5636 23.7215,11.4575 36.2227,16.3613 -12.5013,4.9039 -24.8524,9.7976 -36.2207,16.3614 l -9.1582,5.289 11.0703,19.1758 11.0723,19.1758 9.1582,-5.2871 c 11.5242,-6.6532 22.0686,-15.0384 32.7129,-23.5313 h 35.5351 c 10.6443,8.4913 21.1881,16.8784 32.7129,23.5312 l 9.1582,5.2871 11.0723,-19.1757 11.0703,-19.1758 -9.1582,-5.2871 c -11.367,-6.5627 -23.7178,-11.4572 -36.2168,-16.3614 12.4986,-4.904 24.8523,-9.7959 36.2187,-16.3593 l 9.1582,-5.2891 -11.0703,-19.1758 -11.0722,-19.1758 -9.1582,5.2872 c -11.5245,6.6536 -22.0703,15.0396 -32.7149,23.5312 h -35.5351 c -10.6444,-8.493 -21.1901,-16.8757 -32.7149,-23.5293 z m 37.4977,-21.6506 v 10.5762 c 0,13.3073 1.9898,26.6314 4.0214,40.0957 v 61.957 c -2.0329,13.4647 -4.0216,26.7881 -4.0214,40.0957 v 10.5762 h 22.1425 22.1426 v -10.5762 c 3e-4,-13.3069 -1.9886,-26.6311 -4.0215,-40.0957 v -61.957 c 2.0315,-13.4639 4.0224,-26.7885 4.0215,-40.0957 v -10.5762 h -22.1426 z"
           style="color:#000000;font-style:normal;font-variant:normal;font-weight:normal;font-stretch:normal;font-size:medium;line-height:1.25;font-family:Metropolis;-inkscape-font-specification:Metropolis;font-variant-ligatures:normal;font-variant-position:normal;font-variant-caps:normal;font-variant-numeric:normal;font-variant-alternates:normal;font-feature-settings:normal;text-indent:0;text-align:start;text-decoration:none;text-decoration-line:none;text-decoration-style:solid;text-decoration-color:#000000;letter-spacing:0px;word-spacing:0px;text-transform:none;writing-mode:lr-tb;direction:ltr;text-orientation:mixed;dominant-baseline:auto;baseline-shift:baseline;text-anchor:start;white-space:normal;shape-padding:0;clip-rule:nonzero;display:inline;overflow:visible;visibility:visible;opacity:1;isolation:auto;mix-blend-mode:normal;color-interpolation:sRGB;color-interpolation-filters:linearRGB;solid-color:#000000;solid-opacity:1;vector-effect:none;fill:#808080;fill-opacity:1;fill-rule:nonzero;stroke:none;stroke-width:11.84472466;stroke-linecap:butt;stroke-linejoin:miter;stroke-miterlimit:4;stroke-dasharray:none;stroke-dashoffset:0;stroke-opacity:1;color-rendering:auto;image-rendering:auto;shape-rendering:auto;text-rendering:auto;enable-background:accumulate"
           id="path1811"
           transform="matrix(-1.0071578,-0.5814829,-0.5814829,1.0071578,-69533.156,24379.04)" />
      </g>
      <g
         aria-label="*"
         style="font-style:normal;font-variant:normal;font-weight:normal;font-stretch:normal;font-size:656.00671387px;line-height:1.25;font-family:'PF Encore Sans Pro';-inkscape-font-specification:'PF Encore Sans Pro';font-variant-ligatures:normal;font-variant-caps:normal;font-variant-numeric:normal;font-feature-settings:normal;text-align:start;letter-spacing:0px;word-spacing:0px;writing-mode:lr-tb;text-anchor:start;display:inline;opacity:1;fill:#14b967;fill-opacity:1;stroke:#808080;stroke-width:13.77500629;stroke-opacity:1"
         id="g1819"
         transform="matrix(-0.05433372,-0.09410877,-0.09410877,0.05433372,-5046.5199,-9318.9628)">
        <path
           d="m -3153.7754,-1878.5039 -11.0723,19.1758 -11.0703,19.1758 9.1582,5.289 c 11.3677,6.5636 23.7215,11.4575 36.2227,16.3613 -12.5013,4.9039 -24.8524,9.7976 -36.2207,16.3614 l -9.1582,5.289 11.0703,19.1758 11.0723,19.1758 9.1582,-5.2871 c 11.5242,-6.6532 22.0686,-15.0384 32.7129,-23.5313 h 35.5351 c 10.6443,8.4913 21.1881,16.8784 32.7129,23.5312 l 9.1582,5.2871 11.0723,-19.1757 11.0703,-19.1758 -9.1582,-5.2871 c -11.367,-6.5627 -23.7178,-11.4572 -36.2168,-16.3614 12.4986,-4.904 24.8523,-9.7959 36.2187,-16.3593 l 9.1582,-5.2891 -11.0703,-19.1758 -11.0722,-19.1758 -9.1582,5.2872 c -11.5245,6.6536 -22.0703,15.0396 -32.7149,23.5312 h -35.5351 c -10.6444,-8.493 -21.1901,-16.8757 -32.7149,-23.5293 z m 37.4977,-21.6506 v 10.5762 c 0,13.3073 1.9898,26.6314 4.0214,40.0957 v 61.957 c -2.0329,13.4647 -4.0216,26.7881 -4.0214,40.0957 v 10.5762 h 22.1425 22.1426 v -10.5762 c 3e-4,-13.3069 -1.9886,-26.6311 -4.0215,-40.0957 v -61.957 c 2.0315,-13.4639 4.0224,-26.7885 4.0215,-40.0957 v -10.5762 h -22.1426 z"
           style="color:#000000;font-style:normal;font-variant:normal;font-weight:normal;font-stretch:normal;font-size:medium;line-height:1.25;font-family:Metropolis;-inkscape-font-specification:Metropolis;font-variant-ligatures:normal;font-variant-position:normal;font-variant-caps:normal;font-variant-numeric:normal;font-variant-alternates:normal;font-feature-settings:normal;text-indent:0;text-align:start;text-decoration:none;text-decoration-line:none;text-decoration-style:solid;text-decoration-color:#000000;letter-spacing:0px;word-spacing:0px;text-transform:none;writing-mode:lr-tb;direction:ltr;text-orientation:mixed;dominant-baseline:auto;baseline-shift:baseline;text-anchor:start;white-space:normal;shape-padding:0;clip-rule:nonzero;display:inline;overflow:visible;visibility:visible;opacity:1;isolation:auto;mix-blend-mode:normal;color-interpolation:sRGB;color-interpolation-filters:linearRGB;solid-color:#000000;solid-opacity:1;vector-effect:none;fill:#14b967;fill-opacity:1;fill-rule:nonzero;stroke:none;stroke-width:11.84472466;stroke-linecap:butt;stroke-linejoin:miter;stroke-miterlimit:4;stroke-dasharray:none;stroke-dashoffset:0;stroke-opacity:1;color-rendering:auto;image-rendering:auto;shape-rendering:auto;text-rendering:auto;enable-background:accumulate"
           transform="matrix(-1.0071578,-0.5814829,-0.5814829,1.0071578,-69533.156,24379.04)"
           id="path1815" />
        <path
           transform="matrix(-1.0071578,-0.5814829,-0.5814829,1.0071578,-69533.156,24379.04)"
           id="path1817"
           style="color:#000000;font-style:normal;font-variant:normal;font-weight:normal;font-stretch:normal;font-size:medium;line-height:1.25;font-family:Metropolis;-inkscape-font-specification:Metropolis;font-variant-ligatures:normal;font-variant-position:normal;font-variant-caps:normal;font-variant-numeric:normal;font-variant-alternates:normal;font-feature-settings:normal;text-indent:0;text-align:start;text-decoration:none;text-decoration-line:none;text-decoration-style:solid;text-decoration-color:#000000;letter-spacing:0px;word-spacing:0px;text-transform:none;writing-mode:lr-tb;direction:ltr;text-orientation:mixed;dominant-baseline:auto;baseline-shift:baseline;text-anchor:start;white-space:normal;shape-padding:0;clip-rule:nonzero;display:inline;overflow:visible;visibility:visible;opacity:1;isolation:auto;mix-blend-mode:normal;color-interpolation:sRGB;color-interpolation-filters:linearRGB;solid-color:#000000;solid-opacity:1;vector-effect:none;fill:#14b967;fill-opacity:1;fill-rule:nonzero;stroke:none;stroke-width:11.84472466;stroke-linecap:butt;stroke-linejoin:miter;stroke-miterlimit:4;stroke-dasharray:none;stroke-dashoffset:0;stroke-opacity:1;color-rendering:auto;image-rendering:auto;shape-rendering:auto;text-rendering:auto;enable-background:accumulate"
           d="m -3153.7754,-1878.5039 -11.0723,19.1758 -11.0703,19.1758 9.1582,5.289 c 11.3677,6.5636 23.7215,11.4575 36.2227,16.3613 -12.5013,4.9039 -24.8524,9.7976 -36.2207,16.3614 l -9.1582,5.289 11.0703,19.1758 11.0723,19.1758 9.1582,-5.2871 c 11.5242,-6.6532 22.0686,-15.0384 32.7129,-23.5313 h 35.5351 c 10.6443,8.4913 21.1881,16.8784 32.7129,23.5312 l 9.1582,5.2871 11.0723,-19.1757 11.0703,-19.1758 -9.1582,-5.2871 c -11.367,-6.5627 -23.7178,-11.4572 -36.2168,-16.3614 12.4986,-4.904 24.8523,-9.7959 36.2187,-16.3593 l 9.1582,-5.2891 -11.0703,-19.1758 -11.0722,-19.1758 -9.1582,5.2872 c -11.5245,6.6536 -22.0703,15.0396 -32.7149,23.5312 h -35.5351 c -10.6444,-8.493 -21.1901,-16.8757 -32.7149,-23.5293 z m 37.4977,-21.6506 v 10.5762 c 0,13.3073 1.9898,26.6314 4.0214,40.0957 v 61.957 c -2.0329,13.4647 -4.0216,26.7881 -4.0214,40.0957 v 10.5762 h 22.1425 22.1426 v -10.5762 c 3e-4,-13.3069 -1.9886,-26.6311 -4.0215,-40.0957 v -61.957 c 2.0315,-13.4639 4.0224,-26.7885 4.0215,-40.0957 v -10.5762 h -22.1426 z" />
      </g>
      <g
         transform="matrix(-0.05433372,-0.09410877,-0.09410877,0.05433372,-5036.2008,-9336.8358)"
         id="g1825"
         style="font-style:normal;font-variant:normal;font-weight:normal;font-stretch:normal;font-size:656.00671387px;line-height:1.25;font-family:'PF Encore Sans Pro';-inkscape-font-specification:'PF Encore Sans Pro';font-variant-ligatures:normal;font-variant-caps:normal;font-variant-numeric:normal;font-feature-settings:normal;text-align:start;letter-spacing:0px;word-spacing:0px;writing-mode:lr-tb;text-anchor:start;display:inline;opacity:1;fill:#b3b3b3;fill-opacity:1;stroke:#808080;stroke-width:13.77500629;stroke-opacity:1"
         aria-label="*">
        <path
           id="path1821"
           transform="matrix(-1.0071578,-0.5814829,-0.5814829,1.0071578,-69533.156,24379.04)"
           style="color:#000000;font-style:normal;font-variant:normal;font-weight:normal;font-stretch:normal;font-size:medium;line-height:1.25;font-family:Metropolis;-inkscape-font-specification:Metropolis;font-variant-ligatures:normal;font-variant-position:normal;font-variant-caps:normal;font-variant-numeric:normal;font-variant-alternates:normal;font-feature-settings:normal;text-indent:0;text-align:start;text-decoration:none;text-decoration-line:none;text-decoration-style:solid;text-decoration-color:#000000;letter-spacing:0px;word-spacing:0px;text-transform:none;writing-mode:lr-tb;direction:ltr;text-orientation:mixed;dominant-baseline:auto;baseline-shift:baseline;text-anchor:start;white-space:normal;shape-padding:0;clip-rule:nonzero;display:inline;overflow:visible;visibility:visible;opacity:1;isolation:auto;mix-blend-mode:normal;color-interpolation:sRGB;color-interpolation-filters:linearRGB;solid-color:#000000;solid-opacity:1;vector-effect:none;fill:#b3b3b3;fill-opacity:1;fill-rule:nonzero;stroke:none;stroke-width:11.84472466;stroke-linecap:butt;stroke-linejoin:miter;stroke-miterlimit:4;stroke-dasharray:none;stroke-dashoffset:0;stroke-opacity:1;color-rendering:auto;image-rendering:auto;shape-rendering:auto;text-rendering:auto;enable-background:accumulate"
           d="m -3153.7754,-1878.5039 -11.0723,19.1758 -11.0703,19.1758 9.1582,5.289 c 11.3677,6.5636 23.7215,11.4575 36.2227,16.3613 -12.5013,4.9039 -24.8524,9.7976 -36.2207,16.3614 l -9.1582,5.289 11.0703,19.1758 11.0723,19.1758 9.1582,-5.2871 c 11.5242,-6.6532 22.0686,-15.0384 32.7129,-23.5313 h 35.5351 c 10.6443,8.4913 21.1881,16.8784 32.7129,23.5312 l 9.1582,5.2871 11.0723,-19.1757 11.0703,-19.1758 -9.1582,-5.2871 c -11.367,-6.5627 -23.7178,-11.4572 -36.2168,-16.3614 12.4986,-4.904 24.8523,-9.7959 36.2187,-16.3593 l 9.1582,-5.2891 -11.0703,-19.1758 -11.0722,-19.1758 -9.1582,5.2872 c -11.5245,6.6536 -22.0703,15.0396 -32.7149,23.5312 h -35.5351 c -10.6444,-8.493 -21.1901,-16.8757 -32.7149,-23.5293 z m 37.4977,-21.6506 v 10.5762 c 0,13.3073 1.9898,26.6314 4.0214,40.0957 v 61.957 c -2.0329,13.4647 -4.0216,26.7881 -4.0214,40.0957 v 10.5762 h 22.1425 22.1426 v -10.5762 c 3e-4,-13.3069 -1.9886,-26.6311 -4.0215,-40.0957 v -61.957 c 2.0315,-13.4639 4.0224,-26.7885 4.0215,-40.0957 v -10.5762 h -22.1426 z" />
        <path
           d="m -3153.7754,-1878.5039 -11.0723,19.1758 -11.0703,19.1758 9.1582,5.289 c 11.3677,6.5636 23.7215,11.4575 36.2227,16.3613 -12.5013,4.9039 -24.8524,9.7976 -36.2207,16.3614 l -9.1582,5.289 11.0703,19.1758 11.0723,19.1758 9.1582,-5.2871 c 11.5242,-6.6532 22.0686,-15.0384 32.7129,-23.5313 h 35.5351 c 10.6443,8.4913 21.1881,16.8784 32.7129,23.5312 l 9.1582,5.2871 11.0723,-19.1757 11.0703,-19.1758 -9.1582,-5.2871 c -11.367,-6.5627 -23.7178,-11.4572 -36.2168,-16.3614 12.4986,-4.904 24.8523,-9.7959 36.2187,-16.3593 l 9.1582,-5.2891 -11.0703,-19.1758 -11.0722,-19.1758 -9.1582,5.2872 c -11.5245,6.6536 -22.0703,15.0396 -32.7149,23.5312 h -35.5351 c -10.6444,-8.493 -21.1901,-16.8757 -32.7149,-23.5293 z m 37.4977,-21.6506 v 10.5762 c 0,13.3073 1.9898,26.6314 4.0214,40.0957 v 61.957 c -2.0329,13.4647 -4.0216,26.7881 -4.0214,40.0957 v 10.5762 h 22.1425 22.1426 v -10.5762 c 3e-4,-13.3069 -1.9886,-26.6311 -4.0215,-40.0957 v -61.957 c 2.0315,-13.4639 4.0224,-26.7885 4.0215,-40.0957 v -10.5762 h -22.1426 z"
           style="color:#000000;font-style:normal;font-variant:normal;font-weight:normal;font-stretch:normal;font-size:medium;line-height:1.25;font-family:Metropolis;-inkscape-font-specification:Metropolis;font-variant-ligatures:normal;font-variant-position:normal;font-variant-caps:normal;font-variant-numeric:normal;font-variant-alternates:normal;font-feature-settings:normal;text-indent:0;text-align:start;text-decoration:none;text-decoration-line:none;text-decoration-style:solid;text-decoration-color:#000000;letter-spacing:0px;word-spacing:0px;text-transform:none;writing-mode:lr-tb;direction:ltr;text-orientation:mixed;dominant-baseline:auto;baseline-shift:baseline;text-anchor:start;white-space:normal;shape-padding:0;clip-rule:nonzero;display:inline;overflow:visible;visibility:visible;opacity:1;isolation:auto;mix-blend-mode:normal;color-interpolation:sRGB;color-interpolation-filters:linearRGB;solid-color:#000000;solid-opacity:1;vector-effect:none;fill:#b3b3b3;fill-opacity:1;fill-rule:nonzero;stroke:none;stroke-width:11.84472466;stroke-linecap:butt;stroke-linejoin:miter;stroke-miterlimit:4;stroke-dasharray:none;stroke-dashoffset:0;stroke-opacity:1;color-rendering:auto;image-rendering:auto;shape-rendering:auto;text-rendering:auto;enable-background:accumulate"
           id="path1823"
           transform="matrix(-1.0071578,-0.5814829,-0.5814829,1.0071578,-69533.156,24379.04)" />
      </g>
    </g>
    <g
       id="text919"
       style="font-style:normal;font-variant:normal;font-weight:normal;font-stretch:normal;font-size:9.95018291px;line-height:82.99999833%;font-family:'Clear Sans';-inkscape-font-specification:'Clear Sans';letter-spacing:1.24377286px;word-spacing:0px;display:inline;fill:#000000;fill-opacity:1;stroke:none;stroke-width:0.24875456"
       aria-label="FOSS-AG
DORTMUND">
      <path
         id="path1218"
         style="font-style:normal;font-variant:normal;font-weight:bold;font-stretch:normal;font-size:43.78080368px;line-height:82.99999833%;font-family:'Clear Sans';-inkscape-font-specification:'Clear Sans Bold';letter-spacing:1.55955994px;fill:#ffffff;stroke-width:0.24875456"
         d="m 53.864591,139.7312 v 6.39183 h 10.902446 v 5.32296 H 53.864591 v 12.3561 h -6.028412 v -29.58624 h 19.025838 v 5.51535 z" />
      <path
         id="path1220"
         style="font-style:normal;font-variant:normal;font-weight:bold;font-stretch:normal;font-size:43.78080368px;line-height:82.99999833%;font-family:'Clear Sans';-inkscape-font-specification:'Clear Sans Bold';letter-spacing:1.55955994px;fill:#ffffff;stroke-width:0.24875456"
         d="m 96.682428,149.00897 q 0,7.71722 -3.270734,11.56514 -3.249356,3.84793 -9.470164,3.84793 -6.562845,0 -9.66256,-4.04032 -3.078338,-4.0617 -3.078338,-11.37275 0,-7.35381 3.078338,-11.37275 3.099715,-4.04032 9.66256,-4.04032 6.6056,0 9.662561,4.04032 3.078337,4.01894 3.078337,11.37275 z m -6.220807,0 q 0,-5.25883 -1.496414,-7.65309 -1.475037,-2.41564 -5.023677,-2.41564 -3.548639,0 -5.045053,2.41564 -1.475037,2.39426 -1.475037,7.65309 0,5.25883 1.496414,7.67447 1.517792,2.39426 5.023676,2.39426 3.54864,0 5.023677,-2.39426 1.496414,-2.41564 1.496414,-7.67447 z" />
      <path
         id="path1222"
         style="font-style:normal;font-variant:normal;font-weight:bold;font-stretch:normal;font-size:43.78080368px;line-height:82.99999833%;font-family:'Clear Sans';-inkscape-font-specification:'Clear Sans Bold';letter-spacing:1.55955994px;fill:#ffffff;stroke-width:0.24875456"
         d="m 124.5575,155.22978 q 0,4.44649 -2.9287,6.81937 -2.90731,2.37289 -8.59369,2.37289 -3.93343,0 -6.84075,-1.30402 -2.88594,-1.30402 -4.70301,-4.21134 l 4.63888,-3.54864 q 1.02611,1.45366 1.94534,2.18049 0.91922,0.72683 2.18049,1.133 1.26126,0.40617 2.90732,0.40617 2.45839,0 3.82654,-0.83372 1.38953,-0.85509 1.38953,-2.58666 0,-0.98335 -0.49168,-1.64605 -0.4703,-0.6627 -1.43228,-1.133 -0.96198,-0.49168 -3.33487,-1.11162 -2.30875,-0.61995 -4.36098,-1.23989 -2.03085,-0.64132 -3.52726,-1.64605 -1.47504,-1.00474 -2.33013,-2.52253 -0.85509,-1.51779 -0.85509,-3.82655 0,-4.21133 2.84318,-6.56284 2.84319,-2.37289 8.14477,-2.37289 7.67447,0 10.85969,5.25883 l -4.59613,3.5914 q -1.2185,-1.88121 -2.7363,-2.69355 -1.51779,-0.81234 -3.61277,-0.81234 -2.09498,0 -3.42037,0.76959 -1.30402,0.7482 -1.30402,2.37288 0,1.43228 1.36815,2.20187 1.36815,0.7482 4.76715,1.51779 1.8812,0.49168 3.71966,1.06887 1.83845,0.55581 3.27073,1.56054 1.45366,1.00474 2.33013,2.62942 0.87647,1.62467 0.87647,4.16858 z" />
      <path
         id="path1224"
         style="font-style:normal;font-variant:normal;font-weight:bold;font-stretch:normal;font-size:43.78080368px;line-height:82.99999833%;font-family:'Clear Sans';-inkscape-font-specification:'Clear Sans Bold';letter-spacing:1.55955994px;fill:#ffffff;stroke-width:0.24875456"
         d="m 152.36844,155.22978 q 0,4.44649 -2.9287,6.81937 -2.90731,2.37289 -8.59369,2.37289 -3.93343,0 -6.84075,-1.30402 -2.88594,-1.30402 -4.70301,-4.21134 l 4.63888,-3.54864 q 1.02611,1.45366 1.94534,2.18049 0.91922,0.72683 2.18049,1.133 1.26126,0.40617 2.90732,0.40617 2.45839,0 3.82654,-0.83372 1.38953,-0.85509 1.38953,-2.58666 0,-0.98335 -0.49168,-1.64605 -0.4703,-0.6627 -1.43228,-1.133 -0.96198,-0.49168 -3.33487,-1.11162 -2.30875,-0.61995 -4.36098,-1.23989 -2.03085,-0.64132 -3.52726,-1.64605 -1.47504,-1.00474 -2.33013,-2.52253 -0.85509,-1.51779 -0.85509,-3.82655 0,-4.21133 2.84318,-6.56284 2.84319,-2.37289 8.14477,-2.37289 7.67447,0 10.85969,5.25883 l -4.59613,3.5914 q -1.2185,-1.88121 -2.7363,-2.69355 -1.51779,-0.81234 -3.61277,-0.81234 -2.09498,0 -3.42037,0.76959 -1.30402,0.7482 -1.30402,2.37288 0,1.43228 1.36815,2.20187 1.36815,0.7482 4.76715,1.51779 1.8812,0.49168 3.71966,1.06887 1.83845,0.55581 3.27073,1.56054 1.45366,1.00474 2.33013,2.62942 0.87647,1.62467 0.87647,4.16858 z" />
      <path
         id="path1226"
         style="font-style:normal;font-variant:normal;font-weight:bold;font-stretch:normal;font-size:43.78080368px;line-height:82.99999833%;font-family:'Clear Sans';-inkscape-font-specification:'Clear Sans Bold';letter-spacing:1.55955994px;fill:#ffffff;stroke-width:0.24875456"
         d="m 157.45527,155.27253 v -5.42984 h 13.31808 v 5.42984 z" />
      <path
         id="path1228"
         style="font-style:normal;font-variant:normal;font-weight:bold;font-stretch:normal;font-size:43.78080368px;line-height:82.99999833%;font-family:'Clear Sans';-inkscape-font-specification:'Clear Sans Bold';letter-spacing:1.55955994px;fill:#ffffff;stroke-width:0.24875456"
         d="m 174.68441,163.80209 9.79083,-29.58624 h 7.84548 l 9.8122,29.58624 h -6.17805 l -1.96672,-6.00703 h -11.39412 l -1.92396,6.00703 z m 9.61981,-11.28723 h 7.97375 l -3.97619,-12.22785 z" />
      <path
         id="path1230"
         style="font-style:normal;font-variant:normal;font-weight:bold;font-stretch:normal;font-size:43.78080368px;line-height:82.99999833%;font-family:'Clear Sans';-inkscape-font-specification:'Clear Sans Bold';letter-spacing:1.55955994px;fill:#ffffff;stroke-width:0.24875456"
         d="m 226.56625,142.53163 q -1.133,-1.83845 -2.75768,-2.71492 -1.62468,-0.87647 -4.08307,-0.87647 -4.04032,0 -5.85739,2.60804 -1.7957,2.58666 -1.7957,7.71722 0,5.08781 1.77432,7.46069 1.7957,2.35151 5.75051,2.35151 2.99282,0 5.51535,-1.23989 v -4.59613 h -5.77188 v -5.32295 h 11.82167 v 13.08293 q -2.05223,1.53917 -5.10919,2.47977 -3.03558,0.94061 -6.26356,0.94061 -6.92626,0 -10.43214,-3.61277 -3.50589,-3.61278 -3.50589,-11.54377 0,-15.6696 13.78839,-15.6696 4.01894,0 7.01177,1.34678 2.99283,1.34677 4.55337,3.95481 z" />
      <path
         id="path1232"
         style="font-style:normal;font-variant:normal;font-weight:normal;font-stretch:normal;font-size:33.16727448px;line-height:82.99999833%;font-family:'Clear Sans';-inkscape-font-specification:'Clear Sans';letter-spacing:2.34557843px;fill:#ffffff;stroke-width:0.24875456"
         d="m 63.642459,182.11882 q 0,4.11352 -1.068868,6.54277 -1.052672,2.42924 -3.271381,3.54669 -2.202515,1.11746 -6.218864,1.11746 h -5.700625 v -22.41383 h 5.635845 q 3.91918,0 6.186474,1.13365 2.267294,1.11745 3.352356,3.56289 1.085063,2.44544 1.085063,6.51037 z m -3.158017,-0.0324 q 0,-3.2066 -0.712578,-5.02043 -0.712579,-1.81384 -2.348269,-2.62359 -1.635691,-0.82594 -4.566979,-0.82594 h -2.494023 v 16.98851 h 2.494023 q 2.947483,0 4.550784,-0.80975 1.619496,-0.82594 2.348269,-2.62358 0.728773,-1.81383 0.728773,-5.08522 z" />
      <path
         id="path1234"
         style="font-style:normal;font-variant:normal;font-weight:normal;font-stretch:normal;font-size:33.16727448px;line-height:82.99999833%;font-family:'Clear Sans';-inkscape-font-specification:'Clear Sans';letter-spacing:2.34557843px;fill:#ffffff;stroke-width:0.24875456"
         d="m 88.061765,182.11882 q 0,6.04072 -2.283489,8.85865 -2.267294,2.81792 -6.834272,2.81792 -4.631758,0 -6.882858,-2.86651 -2.234904,-2.86651 -2.234904,-8.81006 0,-5.89496 2.218709,-8.77766 2.21871,-2.8989 6.899053,-2.8989 4.615563,0 6.866662,2.83412 2.251099,2.83411 2.251099,8.84244 z m -3.141822,0 q 0,-4.64795 -1.408961,-6.83427 -1.392767,-2.18632 -4.566978,-2.18632 -3.174212,0 -4.583174,2.18632 -1.392766,2.18632 -1.392766,6.83427 0,4.68035 1.408961,6.85047 1.425157,2.17013 4.566979,2.17013 3.125627,0 4.550783,-2.15393 1.425156,-2.15393 1.425156,-6.86667 z" />
      <path
         id="path1236"
         style="font-style:normal;font-variant:normal;font-weight:normal;font-stretch:normal;font-size:33.16727448px;line-height:82.99999833%;font-family:'Clear Sans';-inkscape-font-specification:'Clear Sans';letter-spacing:2.34557843px;fill:#ffffff;stroke-width:0.24875456"
         d="m 107.8979,193.32574 -5.71682,-9.15016 h -3.902985 v 9.15016 h -2.996067 v -22.41383 h 6.963832 q 4.1783,0 5.99213,1.53852 1.81384,1.53853 1.81384,4.76132 0,2.75314 -1.11745,4.35645 -1.10126,1.6033 -3.59528,2.13773 l 6.07311,9.61981 z m -0.93931,-15.88726 q 0,-2.21871 -1.13364,-3.04465 -1.11746,-0.84214 -3.61148,-0.84214 h -3.935375 v 7.96792 h 3.741035 q 1.87862,0 2.94748,-0.38868 1.08506,-0.40487 1.53852,-1.26321 0.45346,-0.87452 0.45346,-2.42924 z" />
      <path
         id="path1238"
         style="font-style:normal;font-variant:normal;font-weight:normal;font-stretch:normal;font-size:33.16727448px;line-height:82.99999833%;font-family:'Clear Sans';-inkscape-font-specification:'Clear Sans';letter-spacing:2.34557843px;fill:#ffffff;stroke-width:0.24875456"
         d="m 125.12664,173.61647 v 19.70927 h -2.97987 v -19.70927 h -7.43348 v -2.70456 h 17.84684 v 2.70456 z" />
      <path
         id="path1240"
         style="font-style:normal;font-variant:normal;font-weight:normal;font-stretch:normal;font-size:33.16727448px;line-height:82.99999833%;font-family:'Clear Sans';-inkscape-font-specification:'Clear Sans';letter-spacing:2.34557843px;fill:#ffffff;stroke-width:0.24875456"
         d="m 155.57048,193.32574 v -18.57562 l -6.20267,12.47012 h -1.86242 l -6.13789,-12.47012 v 18.57562 h -2.85032 v -22.41383 h 4.04874 l 5.94355,12.19481 5.99214,-12.19481 h 3.91918 v 22.41383 z" />
      <path
         id="path1242"
         style="font-style:normal;font-variant:normal;font-weight:normal;font-stretch:normal;font-size:33.16727448px;line-height:82.99999833%;font-family:'Clear Sans';-inkscape-font-specification:'Clear Sans';letter-spacing:2.34557843px;fill:#ffffff;stroke-width:0.24875456"
         d="m 183.50409,183.96505 q 0,3.67625 -0.82594,5.79779 -0.82595,2.12154 -2.60739,3.09324 -1.76525,0.9717 -4.95566,0.9717 -3.17421,0 -5.00424,-0.98789 -1.83003,-0.9879 -2.65597,-3.12563 -0.80975,-2.13773 -0.80975,-5.74921 v -13.05314 h 2.99606 v 12.72924 q 0,2.94748 0.53444,4.55078 0.53443,1.58711 1.68427,2.28349 1.16604,0.69639 3.20661,0.69639 2.05676,0 3.22279,-0.68019 1.16604,-0.69639 1.68428,-2.20252 0.53443,-1.50613 0.53443,-4.58317 v -12.79402 h 2.99607 z" />
      <path
         id="path1244"
         style="font-style:normal;font-variant:normal;font-weight:normal;font-stretch:normal;font-size:33.16727448px;line-height:82.99999833%;font-family:'Clear Sans';-inkscape-font-specification:'Clear Sans';letter-spacing:2.34557843px;fill:#ffffff;stroke-width:0.24875456"
         d="m 204.73298,193.32574 -10.12185,-19.23962 v 19.23962 h -2.8827 v -22.41383 h 4.38883 l 9.27971,17.60392 v -17.60392 h 2.8827 v 22.41383 z" />
      <path
         id="path1246"
         style="font-style:normal;font-variant:normal;font-weight:normal;font-stretch:normal;font-size:33.16727448px;line-height:82.99999833%;font-family:'Clear Sans';-inkscape-font-specification:'Clear Sans';letter-spacing:2.34557843px;fill:#ffffff;stroke-width:0.24875456"
         d="m 232.61801,182.11882 q 0,4.11352 -1.06886,6.54277 -1.05268,2.42924 -3.27138,3.54669 -2.20252,1.11746 -6.21887,1.11746 h -5.70062 v -22.41383 h 5.63584 q 3.91918,0 6.18648,1.13365 2.26729,1.11745 3.35235,3.56289 1.08506,2.44544 1.08506,6.51037 z m -3.15801,-0.0324 q 0,-3.2066 -0.71258,-5.02043 -0.71258,-1.81384 -2.34827,-2.62359 -1.63569,-0.82594 -4.56698,-0.82594 h -2.49402 v 16.98851 h 2.49402 q 2.94748,0 4.55079,-0.80975 1.61949,-0.82594 2.34826,-2.62358 0.72878,-1.81383 0.72878,-5.08522 z" />
    </g>
  </g>
</svg>
