<?xml version="1.0" encoding="UTF-8" standalone="no"?>
<svg
   xmlns:dc="http://purl.org/dc/elements/1.1/"
   xmlns:cc="http://creativecommons.org/ns#"
   xmlns:rdf="http://www.w3.org/1999/02/22-rdf-syntax-ns#"
   xmlns:svg="http://www.w3.org/2000/svg"
   xmlns="http://www.w3.org/2000/svg"
   xmlns:xlink="http://www.w3.org/1999/xlink"
   width="280mm"
   height="100mm"
   viewBox="0 0 280 100"
   version="1.1"
   id="svg8">
  <defs
     id="defs2">
    <clipPath
       id="clipPath55"
       clipPathUnits="userSpaceOnUse">
      <path
         id="path53"
         d="M 0,800 H 800 V 0 H 0 Z" />
    </clipPath>
    <clipPath
       id="clipPath63"
       clipPathUnits="userSpaceOnUse">
      <path
         id="path61"
         d="M 293.917,34.9951 H 504.282 V 14.0889 H 293.917 Z" />
    </clipPath>
    <clipPath
       id="clipPath179"
       clipPathUnits="userSpaceOnUse">
      <path
         id="path177"
         d="M 0,800 H 800 V 0 H 0 Z" />
    </clipPath>
    <linearGradient
       xlink:href="#foss-ag_green"
       id="linearGradient914"
       gradientUnits="userSpaceOnUse"
       gradientTransform="matrix(0.00124678,0,0,0.00124886,247.51703,33.162995)"
       x1="88.822021"
       y1="226.88707"
       x2="256.22311"
       y2="226.88707" />
    <linearGradient
       gradientUnits="userSpaceOnUse"
       y2="226.88707"
       x2="256.22311"
       y1="226.88707"
       x1="88.822021"
       gradientTransform="matrix(2.4485947e-4,0,0,2.4526901e-4,99.995697,145.46271)"
       id="foss-ag_green">
      <stop
         style="stop-color:#14b967"
         id="stop3200" />
    </linearGradient>
    <linearGradient
       xlink:href="#foss-ag_green"
       id="linearGradient5734"
       gradientUnits="userSpaceOnUse"
       gradientTransform="matrix(0.00124678,0,0,0.00124886,247.51703,33.162995)"
       x1="88.822021"
       y1="226.88707"
       x2="256.22311"
       y2="226.88707" />
    <linearGradient
       xlink:href="#foss-ag_green"
       id="linearGradient5793"
       gradientUnits="userSpaceOnUse"
       gradientTransform="matrix(0.00124678,0,0,0.00124886,247.51703,33.162995)"
       x1="88.822021"
       y1="226.88707"
       x2="256.22311"
       y2="226.88707" />
    <linearGradient
       xlink:href="#foss-ag_green"
       id="linearGradient5819"
       gradientUnits="userSpaceOnUse"
       gradientTransform="matrix(0.00124678,0,0,0.00124886,247.51703,33.162995)"
       x1="88.822021"
       y1="226.88707"
       x2="256.22311"
       y2="226.88707" />
  </defs>
  <metadata
     id="metadata5">
    <rdf:RDF>
      <cc:Work
         rdf:about="">
        <dc:format>image/svg+xml</dc:format>
        <dc:type
           rdf:resource="http://purl.org/dc/dcmitype/StillImage" />
        <dc:title></dc:title>
      </cc:Work>
    </rdf:RDF>
  </metadata>
  <rect
     style="fill:#000000;fill-opacity:1;stroke:none;stroke-width:0.13397697;stroke-miterlimit:4;stroke-dasharray:none;stroke-opacity:1"
     id="rect5653"
     width="280"
     height="100"
     x="0"
     y="0" />
  <g
     transform="translate(317.0416,-28.166656)"
     id="text4767"
     style="font-style:normal;font-weight:normal;font-size:35.27777481px;line-height:125%;font-family:sans-serif;letter-spacing:0px;word-spacing:0px;fill:#000000;fill-opacity:1;stroke:none;stroke-width:0.26458332px;stroke-linecap:butt;stroke-linejoin:miter;stroke-opacity:1" />
  <g
     transform="translate(317.0416,-28.166656)"
     id="text6258"
     style="font-style:normal;font-weight:normal;font-size:35.27777481px;line-height:125%;font-family:sans-serif;letter-spacing:0px;word-spacing:0px;fill:#000000;fill-opacity:1;stroke:none;stroke-width:0.26458332px;stroke-linecap:butt;stroke-linejoin:miter;stroke-opacity:1" />
  <g
     transform="translate(317.0416,-28.166656)"
     id="text6574"
     style="font-style:normal;font-weight:normal;font-size:35.27777481px;line-height:125%;font-family:sans-serif;letter-spacing:0px;word-spacing:0px;fill:#000000;fill-opacity:1;stroke:none;stroke-width:0.26458332px;stroke-linecap:butt;stroke-linejoin:miter;stroke-opacity:1" />
  <g
     transform="matrix(1.0689206,0,0,1.0689206,2426.9857,1171.8903)"
     style="font-style:normal;font-weight:normal;font-size:51.81710434px;line-height:125%;font-family:sans-serif;letter-spacing:0px;word-spacing:0px;fill:#000000;fill-opacity:1;stroke:none;stroke-width:0.24752386px;stroke-linecap:butt;stroke-linejoin:miter;stroke-opacity:1"
     id="text1862" />
  <text
     id="text978"
     y="-83.711868"
     x="370.24493"
     style="font-style:normal;font-variant:normal;font-weight:normal;font-stretch:normal;font-size:10.58333302px;line-height:1.25;font-family:'Clear Sans';-inkscape-font-specification:'Clear Sans';letter-spacing:0px;word-spacing:0px;fill:#ffffff;fill-opacity:1;stroke:none;stroke-width:0.26458332"
     xml:space="preserve"><tspan
       style="fill:#ffffff;fill-opacity:1;stroke-width:0.26458332"
       y="-74.694328"
       x="370.24493"
       id="tspan976" /></text>
  <g
     style="display:inline"
     id="g5716"
     transform="matrix(1.7298406,0,0,1.7298406,-68.88483,107.96742)">
    <path
       id="path5710"
       d="m 171.01119,-22.173512 c 1.04363,0.602565 2.08724,1.205079 3.13081,1.807594 l 0.43178,-0.747733 c 0.5432,-0.940763 0.94642,-1.963863 1.33559,-2.998671 0.38901,1.034962 0.79229,2.058264 1.33553,2.998976 l 0.43179,0.747581 c 1.04361,-0.602413 2.08719,-1.204979 3.13075,-1.807493 l -0.43178,-0.747631 c -0.53572,-0.927932 -1.20911,-1.778061 -1.89258,-2.634962 1.08379,0.163956 2.15684,0.321802 3.22825,0.321802 l 0.86338,-1.02e-4 c 5e-5,-1.204977 5e-5,-2.410057 -6e-5,-3.615086 h -0.86321 c -1.08634,0 -2.1742,0.162429 -3.26492,0.342679 0.7016,-0.854712 1.38625,-1.715432 1.92933,-2.656246 l 0.4318,-0.747631 c -1.04363,-0.602566 -2.08724,-1.205131 -3.13086,-1.807645 l -0.43179,0.747682 c -0.54314,0.940814 -0.94631,1.964014 -1.33568,2.998976 -0.38953,-1.034707 -0.7927,-2.057754 -1.33589,-2.998569 l -0.43128,-0.747987 c -1.04361,0.602412 -2.08719,1.205028 -3.13075,1.807543 l 0.43178,0.747732 c 0.53572,0.927984 1.20936,1.778215 1.89299,2.635167 -1.08395,-0.163956 -2.15689,-0.321803 -3.22852,-0.321803 l -0.86331,1.02e-4 c -1e-4,1.20508 -5e-5,2.410109 0,3.615086 l 0.86326,5.1e-5 c 1.08629,5.1e-5 2.174,-0.162428 3.26487,-0.342678 -0.70154,0.854355 -1.38598,1.715075 -1.65758,2.185508 z"
       style="display:inline;fill:url(#linearGradient5734);fill-opacity:1;stroke:#14b967;stroke-width:0.50918138;stroke-miterlimit:4;stroke-dasharray:none;stroke-opacity:1" />
    <path
       id="path5712"
       d="m 177.67644,-33.718742 c 1.04361,0.602565 2.08718,1.20513 3.13079,1.807645 l 0.43179,-0.747733 c 0.54315,-0.940764 0.94641,-1.963913 1.33558,-2.998671 0.38902,1.034911 0.79229,2.058213 1.33548,2.998926 l 0.43179,0.747631 c 1.04368,-0.602413 2.08724,-1.204978 3.1308,-1.807544 l -0.43178,-0.74758 c -0.53577,-0.927932 -1.20911,-1.778061 -1.89258,-2.634962 1.08374,0.163956 2.1568,0.321293 3.22827,0.321293 l 0.86331,-1.02e-4 c 1e-4,-1.205028 5e-5,-2.410057 0,-3.615137 h -0.86326 c -1.08629,0 -2.17416,0.162429 -3.26487,0.342679 0.7016,-0.854711 1.38619,-1.715432 1.92929,-2.656297 l 0.43178,-0.747682 c -1.04356,-0.602514 -2.08719,-1.205029 -3.13081,-1.807543 l -0.43178,0.747682 c -0.54315,0.940764 -0.94631,1.963963 -1.33569,2.998976 -0.38952,-1.034707 -0.79269,-2.057805 -1.33588,-2.998569 l -0.43128,-0.747987 c -1.04367,0.602412 -2.08723,1.204927 -3.13081,1.807492 l 0.43179,0.747733 c 0.53576,0.928034 1.20935,1.778214 1.89303,2.635166 -1.084,-0.163956 -2.15689,-0.321293 -3.22851,-0.321293 l -0.86331,1.02e-4 c -1.1e-4,1.205079 -6e-5,2.410006 0,3.615086 l 0.86327,5.1e-5 c 1.08628,5e-5 2.174,-0.162429 3.26486,-0.342679 -0.7016,0.854406 -1.38599,1.715177 -1.65759,2.18561 z"
       style="display:inline;fill:#ffffff;fill-opacity:1;stroke:#ffffff;stroke-width:0.50918138;stroke-miterlimit:4;stroke-dasharray:none;stroke-opacity:1" />
    <path
       style="display:inline;fill:none;fill-opacity:1;stroke:#ffffff;stroke-width:0.50918138;stroke-miterlimit:4;stroke-dasharray:none;stroke-opacity:1"
       d="m 184.34172,-22.173462 c 1.04362,0.602566 2.08718,1.205131 3.1308,1.807646 l 0.43178,-0.747734 c 0.54315,-0.940763 0.94642,-1.963912 1.33559,-2.99867 0.38901,1.034911 0.79229,2.058213 1.33548,2.998925 l 0.43178,0.747631 c 1.04367,-0.602412 2.08725,-1.204978 3.13081,-1.807543 l -0.43178,-0.74758 c -0.53577,-0.927932 -1.20911,-1.778061 -1.89258,-2.634963 1.08375,0.163957 2.15678,0.321294 3.22826,0.321294 l 0.86331,-1.02e-4 c 1.1e-4,-1.205029 6e-5,-2.410057 0,-3.615137 h -0.86325 c -1.0863,0 -2.17416,0.162429 -3.26488,0.342679 0.7016,-0.854712 1.3862,-1.715432 1.92929,-2.656298 l 0.43179,-0.747681 c -1.04358,-0.602515 -2.08719,-1.205029 -3.13081,-1.807543 l -0.43179,0.747682 c -0.54314,0.940763 -0.94631,1.963963 -1.33568,2.998976 -0.38953,-1.034708 -0.79269,-2.057806 -1.33589,-2.998569 l -0.43128,-0.747988 c -1.04366,0.602413 -2.08723,1.204927 -3.1308,1.807493 l 0.43178,0.747732 c 0.53577,0.928034 1.20936,1.778214 1.89304,2.635167 -1.08399,-0.163957 -2.15689,-0.321294 -3.22852,-0.321294 l -0.86331,1.02e-4 c -1e-4,1.20508 -5e-5,2.410007 0,3.615086 l 0.86326,5.1e-5 c 1.0863,5.1e-5 2.174,-0.162428 3.26487,-0.342678 -0.7016,0.854405 -1.38598,1.715176 -1.65758,2.18561 z"
       id="path5714" />
  </g>
  <g
     id="g5720"
     style="font-style:normal;font-variant:normal;font-weight:bold;font-stretch:normal;font-size:21.77248192px;line-height:125%;font-family:'Clear Sans';-inkscape-font-specification:'Clear Sans Bold';text-align:center;letter-spacing:0px;word-spacing:0px;text-anchor:middle;fill:#14b967;fill-opacity:1;stroke:none;stroke-width:0.24752383px;stroke-linecap:butt;stroke-linejoin:miter;stroke-opacity:1"
     aria-label="@"
     transform="matrix(1.0689206,0,0,1.0689206,2092.2356,1249.851)">
    <path
       id="path5718"
       style="font-style:normal;font-variant:normal;font-weight:bold;font-stretch:normal;font-size:21.77248192px;font-family:'Clear Sans';-inkscape-font-specification:'Clear Sans Bold';text-align:center;text-anchor:middle;fill:#14b967;stroke-width:0.24752383px"
       d="m -1930.6404,-1129.5838 q 0,1.7967 -0.4784,3.1043 -0.4784,1.3076 -1.4458,2.0412 -0.9568,0.7335 -2.3814,0.7335 -1.0524,0 -1.7541,-0.287 -0.691,-0.287 -0.9887,-1.0419 -1.499,1.0419 -3.0086,1.0419 -1.3501,0 -2.2857,-0.6272 -0.9355,-0.6273 -1.4245,-1.7648 -0.4891,-1.1482 -0.4891,-2.6578 0,-2.4558 1.2014,-3.9016 1.2013,-1.4564 3.3487,-1.4564 1.2014,0 2.4558,0.7441 v -0.4358 h 2.2857 v 7.3992 q 0,0.7016 0.2339,0.8611 0.2445,0.1595 0.5528,0.1595 0.6804,0 1.1269,-0.489 0.4465,-0.4891 0.6804,-1.3608 0.2445,-0.8718 0.2445,-1.9774 0,-3.487 -1.7966,-5.3049 -1.7861,-1.8179 -5.1561,-1.8179 -2.0731,0 -3.7528,0.9355 -1.6797,0.9355 -2.6152,2.6046 -0.9249,1.6585 -0.9249,3.689 0,2.2006 0.893,3.8378 0.9036,1.6372 2.5302,2.4983 1.6372,0.8718 3.8272,0.8718 1.3076,0 2.4238,-0.096 1.1269,-0.096 2.3495,-0.3827 l 0.4146,1.9136 q -2.0199,0.4996 -5.2092,0.4996 -2.7641,0 -4.8903,-1.1162 -2.1262,-1.1057 -3.3063,-3.2 -1.1694,-2.1049 -1.1694,-4.8478 0,-2.5408 1.2119,-4.6351 1.212,-2.105 3.3914,-3.3063 2.1793,-1.2013 4.8052,-1.2013 4.2737,0 6.687,2.3707 2.4132,2.3708 2.4132,6.6019 z m -7.2716,-2.0092 q -1.212,-0.7336 -2.105,-0.7336 -1.2438,0 -1.8923,0.7761 -0.6379,0.7654 -0.6379,2.4877 0,1.5202 0.5847,2.2325 0.5847,0.7016 1.6797,0.7016 0.9462,0 2.3708,-0.978 z" />
  </g>
  <text
     xml:space="preserve"
     style="font-style:normal;font-variant:normal;font-weight:normal;font-stretch:normal;font-size:10.58333302px;line-height:1.14999998;font-family:'Clear Sans';-inkscape-font-specification:'Clear Sans';letter-spacing:0px;word-spacing:0px;fill:#ffffff;fill-opacity:1;stroke:none;stroke-width:0.26458332"
     x="33.048801"
     y="47.266357"
     id="text5728"><tspan
       id="tspan5722"
       x="33.048801"
       y="47.266357"
       style="font-style:normal;font-variant:normal;font-weight:bold;font-stretch:normal;font-size:17.63888931px;line-height:1.14999998;font-family:'Clear Sans';-inkscape-font-specification:'Clear Sans Bold';fill:#ffffff;stroke-width:0.26458332">fesoj</tspan><tspan
       x="33.048801"
       y="67.551086"
       style="font-size:17.63888931px;line-height:1.14999998;fill:#ffffff;stroke-width:0.26458332"
       id="tspan5724">Josef</tspan><tspan
       x="33.048801"
       y="82.176895"
       style="font-size:17.63888931px;line-height:1.14999998;fill:#ffffff;stroke-width:0.26458332"
       id="tspan5726" /></text>
</svg>
